<svg xmlns="http://www.w3.org/2000/svg" version="1.1" xmlns:xlink="http://www.w3.org/1999/xlink" xmlns:svgjs="http://svgjs.dev/svgjs" width="1500" height="1682" viewBox="0 0 1500 1682"><g transform="matrix(1,0,0,1,-2.334725192482324,0)"><svg viewBox="0 0 321 360" data-background-color="#000000" preserveAspectRatio="xMidYMid meet" height="1682" width="1500" xmlns="http://www.w3.org/2000/svg" xmlns:xlink="http://www.w3.org/1999/xlink"><g id="tight-bounds" transform="matrix(1,0,0,1,0.5,0)"><svg viewBox="0 0 320 360" height="360" width="320"><rect width="320.0003688088088" height="360" fill="url(#a91ad1d4-2eb0-41f4-883d-ef90b2b29252)" mask="url(#5fae292b-22fa-4a50-9c65-23b02a9a16fb)" data-fill-palette-color="tertiary"></rect><g><svg></svg></g><g><svg viewBox="0 0 320 360" height="360" width="320"><g><path d="M294.684 112.125c-8.775-10.699-25.381-16.201-43-22.006-7.56-2.498-15.357-5.097-22.985-8.235-7.695-3.173-15.256-7.257-22.613-11.172-14.952-8.033-30.41-16.336-46.105-16.336-15.661 0-31.119 8.303-46.071 16.336-7.358 3.949-14.952 8.033-22.648 11.205-7.594 3.139-15.425 5.704-22.985 8.236-17.618 5.839-34.224 11.341-42.999 22.006-11.712 14.277-11.442 35.439-11.172 57.817 0.034 3.375 0.068 6.717 0.067 10.024 0 3.308-0.034 6.649-0.101 10.024-0.27 22.411-0.54 43.54 11.172 57.851 8.775 10.666 25.381 16.167 42.966 22.006 7.56 2.498 15.357 5.097 23.019 8.235 7.695 3.173 15.256 7.223 22.579 11.172 14.986 8.067 30.444 16.37 46.105 16.37 15.695 0 31.153-8.303 46.105-16.336 7.358-3.949 14.918-8.033 22.614-11.172 7.594-3.139 15.357-5.704 22.884-8.202 17.72-5.873 34.326-11.374 43.101-22.039 11.712-14.277 11.442-35.439 11.171-57.817-0.034-3.409-0.101-6.75-0.101-10.058 0-3.308 0.034-6.649 0.101-9.991 0.371-22.479 0.641-43.641-11.104-57.918zM305.552 103.215c-15.728-19.171-45.801-23.727-71.486-34.326-22.985-9.45-46.375-28.588-74.051-28.587-27.676 0-51.066 19.137-74.052 28.587-25.719 10.598-55.758 15.155-71.486 34.326-17.078 20.791-14.311 50.121-14.311 76.785 0 26.63-2.768 55.994 14.277 76.785 15.728 19.171 45.801 23.727 71.487 34.326 22.985 9.484 46.375 28.588 74.051 28.587 27.676 0 51.066-19.103 74.051-28.587 25.719-10.598 55.758-15.155 71.486-34.326 17.045-20.791 14.277-50.121 14.277-76.785 0.068-26.664 2.835-55.994-14.243-76.785zM309.872 189.923c0.304 23.221 0.574 45.059-12.083 60.483-9.518 11.577-26.664 17.281-44.822 23.289-7.56 2.498-15.29 5.063-22.715 8.134-7.493 3.071-14.952 7.088-22.175 10.969-15.458 8.303-31.355 16.842-48.062 16.842-16.707 0-32.604-8.539-47.995-16.808-7.257-3.915-14.75-7.932-22.243-11.003-7.527-3.105-15.256-5.67-22.748-8.134-18.192-6.008-35.338-11.712-44.823-23.289-12.623-15.391-12.353-37.262-12.083-60.415 0.034-3.375 0.101-6.683 0.101-9.991 0-3.308-0.034-6.615-0.067-9.991-0.304-23.154-0.574-45.025 12.083-60.415 9.518-11.577 26.664-17.247 44.822-23.289 7.527-2.498 15.256-5.063 22.749-8.134 7.493-3.105 14.986-7.122 22.242-11.003 15.391-8.269 31.322-16.842 47.995-16.842 16.673 0 32.604 8.539 47.995 16.808 7.257 3.915 14.75 7.932 22.243 11.003 7.493 3.105 15.256 5.637 22.715 8.134 18.158 6.008 35.338 11.712 44.822 23.289 12.657 15.425 12.387 37.262 12.083 60.416-0.034 3.409-0.101 6.717-0.101 9.99 0 3.308 0.034 6.615 0.067 9.957z" fill="url(#a91ad1d4-2eb0-41f4-883d-ef90b2b29252)" fill-rule="nonzero" stroke="none" stroke-width="1" stroke-linecap="butt" stroke-linejoin="miter" stroke-miterlimit="10" stroke-dasharray="" stroke-dashoffset="0" font-family="none" font-weight="none" font-size="none" text-anchor="none" style="mix-blend-mode: normal" data-fill-palette-color="tertiary"></path></g><g transform="matrix(1,0,0,1,91.98969072164948,108)"><svg viewBox="0 0 136.02061855670104 144" height="144" width="136.02061855670104"><g><svg viewBox="0 0 136.02061855670104 144" height="144" width="136.02061855670104"><g><svg viewBox="0 0 136.02061855670104 144" height="144" width="136.02061855670104"><g id="textblocktransform"><svg viewBox="0 0 136.02061855670104 144" height="144" width="136.02061855670104" id="textblock"><g><svg viewBox="0 0 136.02061855670104 144" height="144" width="136.02061855670104"><g transform="matrix(1,0,0,1,0,0)"><svg width="136.02061855670104" viewBox="2.2 -37.11 35.79 37.89" height="144" data-palette-color="#000000"><path d="M11.67 0.63L8.79 0.63Q8.11 0.63 7.2 0.67 6.3 0.71 5.81 0.73 5.32 0.76 4.7 0.72 4.08 0.68 3.76 0.55 3.44 0.42 3.09 0.15 2.73-0.12 2.58-0.59 2.42-1.05 2.31-1.73 2.2-2.42 2.2-3.37L2.2-3.37Q2.2-8.64 2.39-17.76 2.59-26.88 2.59-31.15L2.59-31.15Q2.59-36.43 3.13-36.72L3.13-36.72 12.21-36.72Q14.62-36.72 15.81-36.44 16.99-36.16 17.38-35.6 17.77-35.03 17.77-33.89L17.77-33.89Q17.77-33.54 17.72-32.56 17.68-31.57 17.68-30.91L17.68-30.91 17.68-29.79Q17.68-29 17.6-27.44 17.53-25.88 17.53-25.1L17.53-25.1 17.53-24.61Q17.58-24.46 17.58-24.22L17.58-24.22 18.55-24.22Q18.97-24.22 19.82-24.19 20.68-24.17 21.09-24.17L21.09-24.17Q22.22-24.17 22.75-24.32L22.75-24.32 22.75-34.47Q22.75-35.69 22.88-36.22 23-36.74 23.22-36.88 23.44-37.01 24.02-37.01L24.02-37.01Q24.34-37.01 25.05-36.99 25.76-36.96 26.07-36.96L26.07-36.96 27.88-37.04Q29.71-37.11 31.15-37.11L31.15-37.11Q37.79-37.11 37.79-35.64L37.79-35.64Q37.79-35.25 37.82-34.52 37.84-33.79 37.84-33.4L37.84-33.4Q37.84-32.54 37.82-30.91 37.79-29.27 37.79-28.42L37.79-28.42Q37.79-25.88 37.87-20.85 37.94-15.82 37.94-13.28L37.94-13.28Q37.94-13.06 37.92-12.73 37.89-12.4 37.89-12.3L37.89-12.3 37.89-11.13Q37.89-9.57 37.94-8.79L37.94-8.79 37.94-8.25Q37.89-8.15 37.89-7.96L37.89-7.96Q37.89-6.67 37.94-4.03 37.99-1.39 37.99-0.1L37.99-0.1Q37.82 0.78 33.3 0.78L33.3 0.78 23.14 0.78 22.41-0.24 22.41-1.86Q22.41-3.49 22.44-6.69 22.46-9.89 22.46-11.52L22.46-11.52Q22.46-12.08 22.33-12.29 22.19-12.5 21.78-12.5L21.78-12.5 20.9-12.5Q19.24-12.5 17.87-12.3L17.87-12.3Q17.87-10.28 17.82-6.21 17.77-2.15 17.77-0.1L17.77-0.1Q17.48 0.63 11.67 0.63L11.67 0.63Z" opacity="1" transform="matrix(1,0,0,1,0,0)" fill="#000000" class="wordmark-text-0" data-fill-palette-color="quaternary" id="text-0"></path></svg></g></svg></g></svg></g></svg></g></svg></g></svg></g></svg></g><defs></defs><mask id="5fae292b-22fa-4a50-9c65-23b02a9a16fb"><g id="SvgjsG3677"><svg viewBox="0 0 320 360" height="360" width="320"><g><svg></svg></g><g><svg viewBox="0 0 320 360" height="360" width="320"><g><path d="M294.684 112.125c-8.775-10.699-25.381-16.201-43-22.006-7.56-2.498-15.357-5.097-22.985-8.235-7.695-3.173-15.256-7.257-22.613-11.172-14.952-8.033-30.41-16.336-46.105-16.336-15.661 0-31.119 8.303-46.071 16.336-7.358 3.949-14.952 8.033-22.648 11.205-7.594 3.139-15.425 5.704-22.985 8.236-17.618 5.839-34.224 11.341-42.999 22.006-11.712 14.277-11.442 35.439-11.172 57.817 0.034 3.375 0.068 6.717 0.067 10.024 0 3.308-0.034 6.649-0.101 10.024-0.27 22.411-0.54 43.54 11.172 57.851 8.775 10.666 25.381 16.167 42.966 22.006 7.56 2.498 15.357 5.097 23.019 8.235 7.695 3.173 15.256 7.223 22.579 11.172 14.986 8.067 30.444 16.37 46.105 16.37 15.695 0 31.153-8.303 46.105-16.336 7.358-3.949 14.918-8.033 22.614-11.172 7.594-3.139 15.357-5.704 22.884-8.202 17.72-5.873 34.326-11.374 43.101-22.039 11.712-14.277 11.442-35.439 11.171-57.817-0.034-3.409-0.101-6.75-0.101-10.058 0-3.308 0.034-6.649 0.101-9.991 0.371-22.479 0.641-43.641-11.104-57.918zM305.552 103.215c-15.728-19.171-45.801-23.727-71.486-34.326-22.985-9.45-46.375-28.588-74.051-28.587-27.676 0-51.066 19.137-74.052 28.587-25.719 10.598-55.758 15.155-71.486 34.326-17.078 20.791-14.311 50.121-14.311 76.785 0 26.63-2.768 55.994 14.277 76.785 15.728 19.171 45.801 23.727 71.487 34.326 22.985 9.484 46.375 28.588 74.051 28.587 27.676 0 51.066-19.103 74.051-28.587 25.719-10.598 55.758-15.155 71.486-34.326 17.045-20.791 14.277-50.121 14.277-76.785 0.068-26.664 2.835-55.994-14.243-76.785zM309.872 189.923c0.304 23.221 0.574 45.059-12.083 60.483-9.518 11.577-26.664 17.281-44.822 23.289-7.56 2.498-15.29 5.063-22.715 8.134-7.493 3.071-14.952 7.088-22.175 10.969-15.458 8.303-31.355 16.842-48.062 16.842-16.707 0-32.604-8.539-47.995-16.808-7.257-3.915-14.75-7.932-22.243-11.003-7.527-3.105-15.256-5.67-22.748-8.134-18.192-6.008-35.338-11.712-44.823-23.289-12.623-15.391-12.353-37.262-12.083-60.415 0.034-3.375 0.101-6.683 0.101-9.991 0-3.308-0.034-6.615-0.067-9.991-0.304-23.154-0.574-45.025 12.083-60.415 9.518-11.577 26.664-17.247 44.822-23.289 7.527-2.498 15.256-5.063 22.749-8.134 7.493-3.105 14.986-7.122 22.242-11.003 15.391-8.269 31.322-16.842 47.995-16.842 16.673 0 32.604 8.539 47.995 16.808 7.257 3.915 14.75 7.932 22.243 11.003 7.493 3.105 15.256 5.637 22.715 8.134 18.158 6.008 35.338 11.712 44.822 23.289 12.657 15.425 12.387 37.262 12.083 60.416-0.034 3.409-0.101 6.717-0.101 9.99 0 3.308 0.034 6.615 0.067 9.957z" fill="white" fill-rule="nonzero" stroke="none" stroke-width="1" stroke-linecap="butt" stroke-linejoin="miter" stroke-miterlimit="10" stroke-dasharray="" stroke-dashoffset="0" font-family="none" font-weight="none" font-size="none" text-anchor="none" style="mix-blend-mode: normal"></path></g><g transform="matrix(1,0,0,1,91.98969072164948,108)"><svg viewBox="0 0 136.02061855670104 144" height="144" width="136.02061855670104"><g><svg viewBox="0 0 136.02061855670104 144" height="144" width="136.02061855670104"><g><svg viewBox="0 0 136.02061855670104 144" height="144" width="136.02061855670104"><g id="SvgjsG3676"><svg viewBox="0 0 136.02061855670104 144" height="144" width="136.02061855670104" id="SvgjsSvg3675"><g><svg viewBox="0 0 136.02061855670104 144" height="144" width="136.02061855670104"><g transform="matrix(1,0,0,1,0,0)"><svg width="136.02061855670104" viewBox="2.2 -37.11 35.79 37.89" height="144" data-palette-color="#000000"><path d="M11.67 0.63L8.79 0.63Q8.11 0.63 7.2 0.67 6.3 0.71 5.81 0.73 5.32 0.76 4.7 0.72 4.08 0.68 3.76 0.55 3.44 0.42 3.09 0.15 2.73-0.12 2.58-0.59 2.42-1.05 2.31-1.73 2.2-2.42 2.2-3.37L2.2-3.37Q2.2-8.64 2.39-17.76 2.59-26.88 2.59-31.15L2.59-31.15Q2.59-36.43 3.13-36.72L3.13-36.72 12.21-36.72Q14.62-36.72 15.81-36.44 16.99-36.16 17.38-35.6 17.77-35.03 17.77-33.89L17.77-33.89Q17.77-33.54 17.72-32.56 17.68-31.57 17.68-30.91L17.68-30.91 17.68-29.79Q17.68-29 17.6-27.44 17.53-25.88 17.53-25.1L17.53-25.1 17.53-24.61Q17.58-24.46 17.58-24.22L17.58-24.22 18.55-24.22Q18.97-24.22 19.82-24.19 20.68-24.17 21.09-24.17L21.09-24.17Q22.22-24.17 22.75-24.32L22.75-24.32 22.75-34.47Q22.75-35.69 22.88-36.22 23-36.74 23.22-36.88 23.44-37.01 24.02-37.01L24.02-37.01Q24.34-37.01 25.05-36.99 25.76-36.96 26.07-36.96L26.07-36.96 27.88-37.04Q29.71-37.11 31.15-37.11L31.15-37.11Q37.79-37.11 37.79-35.64L37.79-35.64Q37.79-35.25 37.82-34.52 37.84-33.79 37.84-33.4L37.84-33.4Q37.84-32.54 37.82-30.91 37.79-29.27 37.79-28.42L37.79-28.42Q37.79-25.88 37.87-20.85 37.94-15.82 37.94-13.28L37.94-13.28Q37.94-13.06 37.92-12.73 37.89-12.4 37.89-12.3L37.89-12.3 37.89-11.13Q37.89-9.57 37.94-8.79L37.94-8.79 37.94-8.25Q37.89-8.15 37.89-7.96L37.89-7.96Q37.89-6.67 37.94-4.03 37.99-1.39 37.99-0.1L37.99-0.1Q37.82 0.78 33.3 0.78L33.3 0.78 23.14 0.78 22.41-0.24 22.41-1.86Q22.41-3.49 22.44-6.69 22.46-9.89 22.46-11.52L22.46-11.52Q22.46-12.08 22.33-12.29 22.19-12.5 21.78-12.5L21.78-12.5 20.9-12.5Q19.24-12.5 17.87-12.3L17.87-12.3Q17.87-10.28 17.82-6.21 17.77-2.15 17.77-0.1L17.77-0.1Q17.48 0.63 11.67 0.63L11.67 0.63Z" opacity="1" transform="matrix(1,0,0,1,0,0)" fill="black" class="wordmark-text-0" id="SvgjsPath3674"></path></svg></g></svg></g></svg></g></svg></g></svg></g></svg></g></svg></g><defs><mask></mask></defs></svg><rect width="320" height="360" fill="black" stroke="none" visibility="hidden"></rect></g></mask><linearGradient x1="0.054" x2="0.941" y1="0.5" y2="0.5" id="a91ad1d4-2eb0-41f4-883d-ef90b2b29252"><stop stop-color="#864d25" offset="0"></stop><stop stop-color="#f1c4b3" offset="0.498"></stop><stop stop-color="#864d25" offset="1"></stop></linearGradient></svg><rect width="320" height="360" fill="none" stroke="none" visibility="hidden"></rect></g></svg></g></svg>